Coordinates
version=1
nRows=24
nColumns=26
inDegrees=yes

Units are S.I. units (second, meters, Newtons, ...)
Angles are in degrees.

endheader
time	pelvis_tilt	pelvis_list	pelvis_rotation	pelvis_tx	pelvis_ty	pelvis_tz	hip_flexion_r	hip_adduction_r	hip_rotation_r	knee_angle_r	knee_angle_r_beta	ankle_angle_r	subtalar_angle_r	mtp_angle_r	hip_flexion_l	hip_adduction_l	hip_rotation_l	knee_angle_l	knee_angle_l_beta	ankle_angle_l	subtalar_angle_l	mtp_angle_l	lumbar_extension	lumbar_bending	lumbar_rotation
     47.68108844	    -12.81632266	     -2.40252381	      1.41328134	      0.18948516	      1.05247828	      0.16177917	     35.43703750	      3.30001456	     -7.27734193	     15.34300095	     15.34300095	     -7.75741868	    -10.38633432	      0.00000000	     -8.46409856	     -1.33323548	      8.54133423	     21.83009511	     21.83009511	    -21.78382193	    -14.74280197	      0.00000000	     -1.44494309	      2.25599500	    -13.03133674
     47.69108844	    -12.55793404	     -1.68988935	      1.16404628	      0.18969065	      1.04995347	      0.16198574	     35.01867840	      2.80878888	     -8.50152384	     13.94891042	     13.94891042	     -7.15195050	     -7.59024021	      0.00000000	     -7.82919995	     -0.28261657	      8.79661287	     26.09611162	     26.09611162	    -20.75962957	    -14.77869188	      0.00000000	     -1.73865228	      1.60932033	    -12.61507530
     47.70108844	    -12.10984280	     -1.25388001	      0.82337589	      0.18980311	      1.04697727	      0.16241566	     34.38283833	      2.72708762	     -8.96825118	     13.26917237	     13.26917237	     -6.93943726	     -6.39272484	      0.00000000	     -7.14924276	      0.44334996	      8.55611418	     30.62825950	     30.62825950	    -20.55598518	    -15.11502222	      0.00000000	     -2.25484814	      1.27255952	    -12.13767310
     47.71108844	    -11.23408553	     -0.77320352	      0.45422562	      0.18986081	      1.04382548	      0.16256311	     33.29022626	      2.63835552	     -8.75437213	     13.29090921	     13.29090921	     -6.83935286	     -6.14922098	      0.00000000	     -6.75856588	      1.18937106	      8.06263805	     35.25617560	     35.25617560	    -20.64281753	    -15.78840471	      0.00000000	     -3.29088297	      0.91512571	    -11.68811455
     47.72108844	    -10.75507821	     -0.46408277	      0.07570488	      0.18949679	      1.03916156	      0.16254796	     32.61579172	      2.74224287	     -7.91548366	     13.91471349	     13.91471349	     -6.99189697	     -6.87871379	      0.00000000	     -5.58829936	      1.71428555	      7.40188256	     40.36707102	     40.36707102	    -20.57517552	    -16.34678384	      0.00000000	     -3.85921543	      0.75508987	    -11.16989594
     47.73108844	    -10.07887261	      0.00858399	     -0.35952804	      0.18887008	      1.03382022	      0.16227285	     31.64963657	      2.71975394	     -6.23564436	     14.93692266	     14.93692266	     -7.46797133	     -8.09893059	      0.00000000	     -4.40537519	      2.41350758	      6.70088709	     45.64811484	     45.64811484	    -20.28156673	    -16.86416263	      0.00000000	     -4.67498566	      0.42707826	    -10.65071989
     47.74108844	     -9.45476471	      0.10954097	     -0.91130012	      0.18787804	      1.02748023	      0.16214548	     30.78058015	      3.04972102	     -4.51801323	     16.53850722	     16.53850722	     -7.97196792	     -8.84338918	      0.00000000	     -2.88864762	      2.61736718	      5.73076193	     51.19316134	     51.19316134	    -19.95559252	    -17.55573635	      0.00000000	     -5.46749428	      0.51378959	     -9.93257434
     47.75108844	     -9.00241457	     -0.28828192	     -1.54720563	      0.18610471	      1.02012024	      0.16264990	     30.06818484	      4.12676102	     -2.20996074	     18.53951467	     18.53951467	     -7.89875895	    -11.18480645	      0.00000000	     -0.89016066	      2.06912330	      4.55460515	     57.03680157	     57.03680157	    -19.26657067	    -17.92073393	      0.00000000	     -6.18622809	      1.08226017	     -9.10845455
     47.76108844	     -8.47787748	     -1.19841763	     -2.24071114	      0.18415393	      1.01198701	      0.16350897	     29.40029882	      5.76890241	     -0.88645409	     21.40467216	     21.40467216	     -4.78181237	    -13.54085249	      0.00000000	      1.12612764	      0.75584018	      3.30119636	     62.87218637	     62.87218637	    -18.70570615	    -18.50731486	      0.00000000	     -7.03001934	      2.18858899	     -7.98011965
     47.77108844	     -8.20449747	     -2.38209883	     -2.95394954	      0.18125752	      1.00277298	      0.16453042	     29.51311154	      7.73026115	     -0.34837112	     25.41671316	     25.41671316	     -1.21441699	    -16.95669848	      0.00000000	      3.59514540	     -1.05368688	      2.15982049	     68.82245314	     68.82245314	    -17.73933408	    -18.86394999	      0.00000000	     -7.71355287	      3.57356983	     -6.82151794
     47.78108844	     -8.11732247	     -3.59764009	     -3.80638391	      0.17712832	      0.99279074	      0.16564366	     30.63185505	      9.70976383	     -0.14770920	     30.49979064	     30.49979064	      1.33235738	    -19.81116435	      0.00000000	      6.43113382	     -3.02696225	      1.17143548	     74.77052279	     74.77052279	    -16.57171060	    -19.45188938	      0.00000000	     -8.38416754	      4.96517237	     -5.55569350
     47.79108844	     -8.28243130	     -4.77614943	     -4.74233330	      0.17187125	      0.98280656	      0.16677071	     32.14566923	     11.66089204	      0.11828368	     35.53589710	     35.53589710	      2.89847093	    -22.42585553	      0.00000000	      9.70135868	     -4.97421919	      0.58734683	     80.45483433	     80.45483433	    -15.69321986	    -19.97870059	      0.00000000	     -8.97489129	      6.26404351	     -4.23600166
     47.80108844	     -8.53943348	     -6.07381666	     -5.76643295	      0.16630488	      0.97388223	      0.16802192	     33.03362005	     13.73105619	      0.57085408	     39.47481441	     39.47481441	      4.63538613	    -24.13617926	      0.00000000	     13.10301058	     -7.07346664	      0.41005876	     85.65224013	     85.65224013	    -14.69948529	    -20.45304514	      0.00000000	     -9.58935549	      7.64891669	     -2.72768109
     47.81108844	     -8.92555654	     -7.30440916	     -6.86478342	      0.16088431	      0.96638933	      0.16920200	     33.25770540	     15.64030128	      1.12769924	     42.26006911	     42.26006911	      6.93388432	    -24.46285498	      0.00000000	     16.65844749	     -9.12318895	      0.52819957	     90.23294827	     90.23294827	    -13.75014105	    -20.77326260	      0.00000000	    -10.09737276	      8.94401287	     -0.94204411
     47.82108844	     -9.50734603	     -8.10455276	     -8.11476134	      0.15592648	      0.95983966	      0.17039452	     33.17109379	     17.16966972	      1.98028749	     44.30979687	     44.30979687	      9.16949701	    -24.49257277	      0.00000000	     20.38462692	    -10.69959077	      0.71436773	     94.11376244	     94.11376244	    -12.94664271	    -21.21107125	      0.00000000	    -10.27616537	      9.75135139	      1.16505389
     47.83108844	    -10.67305283	     -8.55710379	     -9.03486927	      0.15100970	      0.95339448	      0.17145830	     33.49246851	     18.26509110	      2.64102261	     45.90932698	     45.90932698	     11.07990637	    -24.69564746	      0.00000000	     24.97191306	    -11.85554558	      1.52450712	     97.51725680	     97.51725680	    -11.92436425	    -20.92121376	      0.00000000	     -9.59126670	     10.25280577	      2.68367489
     47.84108844	    -11.48600542	     -8.82188207	     -9.53267229	      0.14678283	      0.94879635	      0.17233014	     33.19625892	     18.85839672	      2.94518474	     47.05866617	     47.05866617	     12.80755666	    -24.73148953	      0.00000000	     29.20854712	    -12.65897763	      2.64682827	    100.14189706	    100.14189706	    -10.82389874	    -20.47538198	      0.00000000	     -9.10489793	     10.46431188	      3.79525011
     47.85108844	    -11.61104042	     -8.99585242	     -9.79138083	      0.14382747	      0.94694681	      0.17262024	     31.77827247	     19.01811367	      3.10970315	     47.66384754	     47.66384754	     14.49115284	    -24.24682584	      0.00000000	     32.46620832	    -13.07387203	      3.72001613	    101.80659857	    101.80659857	     -9.84770160	    -20.34438338	      0.00000000	     -9.20935202	     10.52838159	      4.81413796
     47.86108844	    -11.40792340	     -9.07871168	     -9.86299159	      0.14174267	      0.94740764	      0.17235213	     29.61078246	     18.79182796	      3.24037614	     47.61684515	     47.61684515	     16.26345323	    -22.80308174	      0.00000000	     35.17671507	    -13.22926722	      4.66725223	    102.60960480	    102.60960480	     -9.00516843	    -20.00619541	      0.00000000	     -9.55070560	     10.52641538	      5.71272578
     47.87108844	    -10.89827810	     -9.04743618	     -9.81768960	      0.14038481	      0.95019569	      0.17174185	     26.69657846	     18.31044310	      3.61054198	     46.77612178	     46.77612178	     17.59607076	    -21.42755098	      0.00000000	     37.27381089	    -13.10904046	      5.39459219	    102.53154851	    102.53154851	     -8.56811234	    -20.03457909	      0.00000000	    -10.13269884	     10.37354024	      6.64553401
     47.88108844	    -10.48840215	     -8.89788402	     -9.67443960	      0.13942450	      0.95442882	      0.17118529	     23.60865130	     17.67980945	      4.09707465	     45.27856953	     45.27856953	     18.22698209	    -20.30022517	      0.00000000	     39.23799011	    -12.80239758	      5.97063332	    101.70192719	    101.70192719	     -8.67654042	    -20.46631671	      0.00000000	    -10.50741093	     10.04277489	      7.36967782
     47.89108844	    -10.81836812	     -8.39982847	     -9.62529702	      0.13826673	      0.95867370	      0.17085210	     21.33447917	     16.82741806	      4.66459793	     43.58919461	     43.58919461	     17.95018306	    -19.55924235	      0.00000000	     41.79875682	    -12.23713488	      6.31842515	    100.34989090	    100.34989090	     -8.41626511	    -20.59780087	      0.00000000	     -9.97655285	      9.41867255	      8.06104295
     47.90108844	    -10.10919169	     -8.00639283	     -9.56531842	      0.13857756	      0.96588160	      0.17102170	     17.41424975	     16.03988810	      5.86409702	     40.99241648	     40.99241648	     17.39099192	    -18.86744377	      0.00000000	     42.65294606	    -11.84477577	      6.09412970	     98.11654551	     98.11654551	     -8.91537875	    -22.57806897	      0.00000000	    -10.53094397	      8.64292453	      8.92491917
     47.91108844	    -10.85880937	     -7.29601523	     -9.48605303	      0.13820833	      0.97145146	      0.17116874	     15.41156319	     14.97246277	      6.39485356	     38.65153116	     38.65153116	     16.18352607	    -17.92688330	      0.00000000	     45.02945634	    -11.18510733	      6.05004197	     95.61246759	     95.61246759	     -8.32363586	    -22.96891545	      0.00000000	     -9.36975285	      7.79393934	      9.77323753
